<mxfile host="app.diagrams.net" modified="2023-10-26T22:06:13.466Z" agent="Mozilla/5.0 (Windows NT 10.0; Win64; x64) AppleWebKit/537.36 (KHTML, like Gecko) Chrome/118.0.0.0 Safari/537.36 Edg/118.0.2088.61" etag="vNe5WpHUcZIB4Pl_UncQ" version="22.0.8" type="device" pages="2">
  <diagram id="h06ktr0G7YZiLN59eI77" name="Страница — 1">
    <mxGraphModel dx="996" dy="1738" grid="1" gridSize="10" guides="1" tooltips="1" connect="1" arrows="1" fold="1" page="1" pageScale="1" pageWidth="827" pageHeight="1169" math="0" shadow="0">
      <root>
        <mxCell id="0" />
        <mxCell id="1" parent="0" />
        <mxCell id="rXN8O0KgYMm2YPSh0siE-25" value="&lt;b&gt;Line&lt;/b&gt;" style="swimlane;fontStyle=0;childLayout=stackLayout;horizontal=1;startSize=30;horizontalStack=0;resizeParent=1;resizeParentMax=0;resizeLast=0;collapsible=1;marginBottom=0;whiteSpace=wrap;html=1;" parent="1" vertex="1">
          <mxGeometry x="580" y="440" width="140" height="90" as="geometry" />
        </mxCell>
        <mxCell id="rXN8O0KgYMm2YPSh0siE-26" value="+ startPoint: Point" style="text;strokeColor=none;fillColor=none;align=left;verticalAlign=middle;spacingLeft=4;spacingRight=4;overflow=hidden;points=[[0,0.5],[1,0.5]];portConstraint=eastwest;rotatable=0;whiteSpace=wrap;html=1;" parent="rXN8O0KgYMm2YPSh0siE-25" vertex="1">
          <mxGeometry y="30" width="140" height="30" as="geometry" />
        </mxCell>
        <mxCell id="rXN8O0KgYMm2YPSh0siE-54" value="+ endPoint: Point" style="text;strokeColor=none;fillColor=none;align=left;verticalAlign=middle;spacingLeft=4;spacingRight=4;overflow=hidden;points=[[0,0.5],[1,0.5]];portConstraint=eastwest;rotatable=0;whiteSpace=wrap;html=1;" parent="rXN8O0KgYMm2YPSh0siE-25" vertex="1">
          <mxGeometry y="60" width="140" height="30" as="geometry" />
        </mxCell>
        <mxCell id="rXN8O0KgYMm2YPSh0siE-40" value="Point" style="swimlane;fontStyle=1;align=center;verticalAlign=top;childLayout=stackLayout;horizontal=1;startSize=26;horizontalStack=0;resizeParent=1;resizeParentMax=0;resizeLast=0;collapsible=1;marginBottom=0;whiteSpace=wrap;html=1;" parent="1" vertex="1">
          <mxGeometry x="180" y="440" width="160" height="78" as="geometry" />
        </mxCell>
        <mxCell id="rXN8O0KgYMm2YPSh0siE-41" value="+ x: int" style="text;strokeColor=none;fillColor=none;align=left;verticalAlign=top;spacingLeft=4;spacingRight=4;overflow=hidden;rotatable=0;points=[[0,0.5],[1,0.5]];portConstraint=eastwest;whiteSpace=wrap;html=1;" parent="rXN8O0KgYMm2YPSh0siE-40" vertex="1">
          <mxGeometry y="26" width="160" height="26" as="geometry" />
        </mxCell>
        <mxCell id="rXN8O0KgYMm2YPSh0siE-53" value="+ y:int" style="text;strokeColor=none;fillColor=none;align=left;verticalAlign=top;spacingLeft=4;spacingRight=4;overflow=hidden;rotatable=0;points=[[0,0.5],[1,0.5]];portConstraint=eastwest;whiteSpace=wrap;html=1;" parent="rXN8O0KgYMm2YPSh0siE-40" vertex="1">
          <mxGeometry y="52" width="160" height="26" as="geometry" />
        </mxCell>
        <mxCell id="rXN8O0KgYMm2YPSh0siE-44" value="Shape" style="swimlane;fontStyle=1;align=center;verticalAlign=top;childLayout=stackLayout;horizontal=1;startSize=26;horizontalStack=0;resizeParent=1;resizeParentMax=0;resizeLast=0;collapsible=1;marginBottom=0;whiteSpace=wrap;html=1;" parent="1" vertex="1">
          <mxGeometry x="40" y="168" width="160" height="190" as="geometry" />
        </mxCell>
        <mxCell id="rXN8O0KgYMm2YPSh0siE-45" value="+ positionX: int" style="text;strokeColor=none;fillColor=none;align=left;verticalAlign=top;spacingLeft=4;spacingRight=4;overflow=hidden;rotatable=0;points=[[0,0.5],[1,0.5]];portConstraint=eastwest;whiteSpace=wrap;html=1;" parent="rXN8O0KgYMm2YPSh0siE-44" vertex="1">
          <mxGeometry y="26" width="160" height="26" as="geometry" />
        </mxCell>
        <mxCell id="rXN8O0KgYMm2YPSh0siE-48" value="+ positionY: int&lt;br&gt;" style="text;strokeColor=none;fillColor=none;align=left;verticalAlign=top;spacingLeft=4;spacingRight=4;overflow=hidden;rotatable=0;points=[[0,0.5],[1,0.5]];portConstraint=eastwest;whiteSpace=wrap;html=1;" parent="rXN8O0KgYMm2YPSh0siE-44" vertex="1">
          <mxGeometry y="52" width="160" height="26" as="geometry" />
        </mxCell>
        <mxCell id="rXN8O0KgYMm2YPSh0siE-49" value="+ lineColor: Color" style="text;strokeColor=none;fillColor=none;align=left;verticalAlign=top;spacingLeft=4;spacingRight=4;overflow=hidden;rotatable=0;points=[[0,0.5],[1,0.5]];portConstraint=eastwest;whiteSpace=wrap;html=1;" parent="rXN8O0KgYMm2YPSh0siE-44" vertex="1">
          <mxGeometry y="78" width="160" height="26" as="geometry" />
        </mxCell>
        <mxCell id="rXN8O0KgYMm2YPSh0siE-51" value="+ fillColor: Color" style="text;strokeColor=none;fillColor=none;align=left;verticalAlign=top;spacingLeft=4;spacingRight=4;overflow=hidden;rotatable=0;points=[[0,0.5],[1,0.5]];portConstraint=eastwest;whiteSpace=wrap;html=1;" parent="rXN8O0KgYMm2YPSh0siE-44" vertex="1">
          <mxGeometry y="104" width="160" height="26" as="geometry" />
        </mxCell>
        <mxCell id="rXN8O0KgYMm2YPSh0siE-46" value="" style="line;strokeWidth=1;fillColor=none;align=left;verticalAlign=middle;spacingTop=-1;spacingLeft=3;spacingRight=3;rotatable=0;labelPosition=right;points=[];portConstraint=eastwest;strokeColor=inherit;" parent="rXN8O0KgYMm2YPSh0siE-44" vertex="1">
          <mxGeometry y="130" width="160" height="8" as="geometry" />
        </mxCell>
        <mxCell id="rXN8O0KgYMm2YPSh0siE-47" value="moveTo(x: int, y:int):void" style="text;strokeColor=none;fillColor=none;align=left;verticalAlign=top;spacingLeft=4;spacingRight=4;overflow=hidden;rotatable=0;points=[[0,0.5],[1,0.5]];portConstraint=eastwest;whiteSpace=wrap;html=1;" parent="rXN8O0KgYMm2YPSh0siE-44" vertex="1">
          <mxGeometry y="138" width="160" height="26" as="geometry" />
        </mxCell>
        <mxCell id="rXN8O0KgYMm2YPSh0siE-52" value="&lt;font style=&quot;font-size: 10px;&quot;&gt;resize(width:int, height:int):void&lt;/font&gt;" style="text;strokeColor=none;fillColor=none;align=left;verticalAlign=top;spacingLeft=4;spacingRight=4;overflow=hidden;rotatable=0;points=[[0,0.5],[1,0.5]];portConstraint=eastwest;whiteSpace=wrap;html=1;" parent="rXN8O0KgYMm2YPSh0siE-44" vertex="1">
          <mxGeometry y="164" width="160" height="26" as="geometry" />
        </mxCell>
        <mxCell id="rXN8O0KgYMm2YPSh0siE-55" value="&lt;b&gt;Polygon&lt;/b&gt;" style="swimlane;fontStyle=0;childLayout=stackLayout;horizontal=1;startSize=26;fillColor=none;horizontalStack=0;resizeParent=1;resizeParentMax=0;resizeLast=0;collapsible=1;marginBottom=0;whiteSpace=wrap;html=1;" parent="1" vertex="1">
          <mxGeometry x="390" y="440" width="140" height="52" as="geometry" />
        </mxCell>
        <mxCell id="rXN8O0KgYMm2YPSh0siE-56" value="+ verticles: List&amp;lt;Point&amp;gt;" style="text;strokeColor=none;fillColor=none;align=left;verticalAlign=top;spacingLeft=4;spacingRight=4;overflow=hidden;rotatable=0;points=[[0,0.5],[1,0.5]];portConstraint=eastwest;whiteSpace=wrap;html=1;" parent="rXN8O0KgYMm2YPSh0siE-55" vertex="1">
          <mxGeometry y="26" width="140" height="26" as="geometry" />
        </mxCell>
        <mxCell id="rXN8O0KgYMm2YPSh0siE-59" value="&lt;b&gt;Circle&lt;/b&gt;" style="swimlane;fontStyle=0;childLayout=stackLayout;horizontal=1;startSize=26;fillColor=none;horizontalStack=0;resizeParent=1;resizeParentMax=0;resizeLast=0;collapsible=1;marginBottom=0;whiteSpace=wrap;html=1;" parent="1" vertex="1">
          <mxGeometry y="440" width="140" height="78" as="geometry" />
        </mxCell>
        <mxCell id="rXN8O0KgYMm2YPSh0siE-60" value="+ center: Point" style="text;strokeColor=none;fillColor=none;align=left;verticalAlign=top;spacingLeft=4;spacingRight=4;overflow=hidden;rotatable=0;points=[[0,0.5],[1,0.5]];portConstraint=eastwest;whiteSpace=wrap;html=1;" parent="rXN8O0KgYMm2YPSh0siE-59" vertex="1">
          <mxGeometry y="26" width="140" height="26" as="geometry" />
        </mxCell>
        <mxCell id="rXN8O0KgYMm2YPSh0siE-61" value="+ radius: int" style="text;strokeColor=none;fillColor=none;align=left;verticalAlign=top;spacingLeft=4;spacingRight=4;overflow=hidden;rotatable=0;points=[[0,0.5],[1,0.5]];portConstraint=eastwest;whiteSpace=wrap;html=1;" parent="rXN8O0KgYMm2YPSh0siE-59" vertex="1">
          <mxGeometry y="52" width="140" height="26" as="geometry" />
        </mxCell>
        <mxCell id="rXN8O0KgYMm2YPSh0siE-63" value="ComplexShape" style="swimlane;fontStyle=1;align=center;verticalAlign=top;childLayout=stackLayout;horizontal=1;startSize=26;horizontalStack=0;resizeParent=1;resizeParentMax=0;resizeLast=0;collapsible=1;marginBottom=0;whiteSpace=wrap;html=1;" parent="1" vertex="1">
          <mxGeometry x="335" y="270" width="160" height="112" as="geometry" />
        </mxCell>
        <mxCell id="rXN8O0KgYMm2YPSh0siE-64" value="+ shapes: List&amp;lt;Shape&amp;gt;" style="text;strokeColor=none;fillColor=none;align=left;verticalAlign=top;spacingLeft=4;spacingRight=4;overflow=hidden;rotatable=0;points=[[0,0.5],[1,0.5]];portConstraint=eastwest;whiteSpace=wrap;html=1;" parent="rXN8O0KgYMm2YPSh0siE-63" vertex="1">
          <mxGeometry y="26" width="160" height="26" as="geometry" />
        </mxCell>
        <mxCell id="rXN8O0KgYMm2YPSh0siE-65" value="" style="line;strokeWidth=1;fillColor=none;align=left;verticalAlign=middle;spacingTop=-1;spacingLeft=3;spacingRight=3;rotatable=0;labelPosition=right;points=[];portConstraint=eastwest;strokeColor=inherit;" parent="rXN8O0KgYMm2YPSh0siE-63" vertex="1">
          <mxGeometry y="52" width="160" height="8" as="geometry" />
        </mxCell>
        <mxCell id="rXN8O0KgYMm2YPSh0siE-66" value="&lt;font style=&quot;font-size: 9px;&quot;&gt;+ addShape(shape: Shape):void&lt;/font&gt;" style="text;strokeColor=none;fillColor=none;align=left;verticalAlign=top;spacingLeft=4;spacingRight=4;overflow=hidden;rotatable=0;points=[[0,0.5],[1,0.5]];portConstraint=eastwest;whiteSpace=wrap;html=1;" parent="rXN8O0KgYMm2YPSh0siE-63" vertex="1">
          <mxGeometry y="60" width="160" height="26" as="geometry" />
        </mxCell>
        <mxCell id="rXN8O0KgYMm2YPSh0siE-67" value="&lt;font style=&quot;font-size: 9px;&quot;&gt;+ removeShape(shape: Shape):void&lt;/font&gt;" style="text;strokeColor=none;fillColor=none;align=left;verticalAlign=top;spacingLeft=4;spacingRight=4;overflow=hidden;rotatable=0;points=[[0,0.5],[1,0.5]];portConstraint=eastwest;whiteSpace=wrap;html=1;" parent="rXN8O0KgYMm2YPSh0siE-63" vertex="1">
          <mxGeometry y="86" width="160" height="26" as="geometry" />
        </mxCell>
        <mxCell id="rXN8O0KgYMm2YPSh0siE-68" value="Drawing" style="swimlane;fontStyle=1;align=center;verticalAlign=top;childLayout=stackLayout;horizontal=1;startSize=26;horizontalStack=0;resizeParent=1;resizeParentMax=0;resizeLast=0;collapsible=1;marginBottom=0;whiteSpace=wrap;html=1;" parent="1" vertex="1">
          <mxGeometry x="530" y="148" width="160" height="138" as="geometry" />
        </mxCell>
        <mxCell id="rXN8O0KgYMm2YPSh0siE-69" value="+ shapes: List&amp;lt;Shape&amp;gt;" style="text;strokeColor=none;fillColor=none;align=left;verticalAlign=top;spacingLeft=4;spacingRight=4;overflow=hidden;rotatable=0;points=[[0,0.5],[1,0.5]];portConstraint=eastwest;whiteSpace=wrap;html=1;" parent="rXN8O0KgYMm2YPSh0siE-68" vertex="1">
          <mxGeometry y="26" width="160" height="26" as="geometry" />
        </mxCell>
        <mxCell id="rXN8O0KgYMm2YPSh0siE-70" value="" style="line;strokeWidth=1;fillColor=none;align=left;verticalAlign=middle;spacingTop=-1;spacingLeft=3;spacingRight=3;rotatable=0;labelPosition=right;points=[];portConstraint=eastwest;strokeColor=inherit;" parent="rXN8O0KgYMm2YPSh0siE-68" vertex="1">
          <mxGeometry y="52" width="160" height="8" as="geometry" />
        </mxCell>
        <mxCell id="rXN8O0KgYMm2YPSh0siE-71" value="&lt;font style=&quot;font-size: 10px;&quot;&gt;+ addShape(shape: Shape):void&lt;/font&gt;" style="text;strokeColor=none;fillColor=none;align=left;verticalAlign=top;spacingLeft=4;spacingRight=4;overflow=hidden;rotatable=0;points=[[0,0.5],[1,0.5]];portConstraint=eastwest;whiteSpace=wrap;html=1;" parent="rXN8O0KgYMm2YPSh0siE-68" vertex="1">
          <mxGeometry y="60" width="160" height="26" as="geometry" />
        </mxCell>
        <mxCell id="rXN8O0KgYMm2YPSh0siE-72" value="&lt;font style=&quot;font-size: 9px;&quot;&gt;+ removeShape(shape: Shape):void&lt;/font&gt;" style="text;strokeColor=none;fillColor=none;align=left;verticalAlign=top;spacingLeft=4;spacingRight=4;overflow=hidden;rotatable=0;points=[[0,0.5],[1,0.5]];portConstraint=eastwest;whiteSpace=wrap;html=1;" parent="rXN8O0KgYMm2YPSh0siE-68" vertex="1">
          <mxGeometry y="86" width="160" height="26" as="geometry" />
        </mxCell>
        <mxCell id="rXN8O0KgYMm2YPSh0siE-73" value="&lt;font style=&quot;font-size: 9px;&quot;&gt;+ saveToFile(format: FileFormat):void&lt;/font&gt;" style="text;strokeColor=none;fillColor=none;align=left;verticalAlign=top;spacingLeft=4;spacingRight=4;overflow=hidden;rotatable=0;points=[[0,0.5],[1,0.5]];portConstraint=eastwest;whiteSpace=wrap;html=1;" parent="rXN8O0KgYMm2YPSh0siE-68" vertex="1">
          <mxGeometry y="112" width="160" height="26" as="geometry" />
        </mxCell>
        <mxCell id="oS7kkCP_p77NcMJ5a0b5-1" value="GraphicsEditor" style="swimlane;fontStyle=1;align=center;verticalAlign=top;childLayout=stackLayout;horizontal=1;startSize=26;horizontalStack=0;resizeParent=1;resizeParentMax=0;resizeLast=0;collapsible=1;marginBottom=0;whiteSpace=wrap;html=1;" parent="1" vertex="1">
          <mxGeometry x="330" y="10" width="160" height="138" as="geometry" />
        </mxCell>
        <mxCell id="oS7kkCP_p77NcMJ5a0b5-2" value="+ drawings: List&amp;lt;Drawing&amp;gt;" style="text;strokeColor=none;fillColor=none;align=left;verticalAlign=top;spacingLeft=4;spacingRight=4;overflow=hidden;rotatable=0;points=[[0,0.5],[1,0.5]];portConstraint=eastwest;whiteSpace=wrap;html=1;" parent="oS7kkCP_p77NcMJ5a0b5-1" vertex="1">
          <mxGeometry y="26" width="160" height="26" as="geometry" />
        </mxCell>
        <mxCell id="oS7kkCP_p77NcMJ5a0b5-3" value="" style="line;strokeWidth=1;fillColor=none;align=left;verticalAlign=middle;spacingTop=-1;spacingLeft=3;spacingRight=3;rotatable=0;labelPosition=right;points=[];portConstraint=eastwest;strokeColor=inherit;" parent="oS7kkCP_p77NcMJ5a0b5-1" vertex="1">
          <mxGeometry y="52" width="160" height="8" as="geometry" />
        </mxCell>
        <mxCell id="oS7kkCP_p77NcMJ5a0b5-4" value="+ createDrawing(): Drawing" style="text;strokeColor=none;fillColor=none;align=left;verticalAlign=top;spacingLeft=4;spacingRight=4;overflow=hidden;rotatable=0;points=[[0,0.5],[1,0.5]];portConstraint=eastwest;whiteSpace=wrap;html=1;" parent="oS7kkCP_p77NcMJ5a0b5-1" vertex="1">
          <mxGeometry y="60" width="160" height="26" as="geometry" />
        </mxCell>
        <mxCell id="oS7kkCP_p77NcMJ5a0b5-5" value="&lt;font style=&quot;font-size: 10px;&quot;&gt;+openDrawing(file: File): Drawing&lt;/font&gt;" style="text;strokeColor=none;fillColor=none;align=left;verticalAlign=top;spacingLeft=4;spacingRight=4;overflow=hidden;rotatable=0;points=[[0,0.5],[1,0.5]];portConstraint=eastwest;whiteSpace=wrap;html=1;" parent="oS7kkCP_p77NcMJ5a0b5-1" vertex="1">
          <mxGeometry y="86" width="160" height="26" as="geometry" />
        </mxCell>
        <mxCell id="oS7kkCP_p77NcMJ5a0b5-6" value="&lt;font style=&quot;font-size: 8px;&quot;&gt;+ closeDrawing(drawing: Drawing):void&lt;/font&gt;" style="text;strokeColor=none;fillColor=none;align=left;verticalAlign=top;spacingLeft=4;spacingRight=4;overflow=hidden;rotatable=0;points=[[0,0.5],[1,0.5]];portConstraint=eastwest;whiteSpace=wrap;html=1;" parent="oS7kkCP_p77NcMJ5a0b5-1" vertex="1">
          <mxGeometry y="112" width="160" height="26" as="geometry" />
        </mxCell>
        <mxCell id="oS7kkCP_p77NcMJ5a0b5-14" value="" style="endArrow=diamondThin;endFill=1;endSize=24;html=1;rounded=0;edgeStyle=elbowEdgeStyle;exitX=1.011;exitY=0.096;exitDx=0;exitDy=0;exitPerimeter=0;entryX=-0.016;entryY=0.095;entryDx=0;entryDy=0;entryPerimeter=0;" parent="1" source="rXN8O0KgYMm2YPSh0siE-44" target="oS7kkCP_p77NcMJ5a0b5-1" edge="1">
          <mxGeometry width="160" relative="1" as="geometry">
            <mxPoint x="120" y="120" as="sourcePoint" />
            <mxPoint x="270" y="78.5" as="targetPoint" />
          </mxGeometry>
        </mxCell>
        <mxCell id="oS7kkCP_p77NcMJ5a0b5-16" value="Extends" style="endArrow=block;endSize=16;endFill=0;html=1;rounded=0;exitX=0.379;exitY=-0.064;exitDx=0;exitDy=0;exitPerimeter=0;edgeStyle=orthogonalEdgeStyle;" parent="1" source="rXN8O0KgYMm2YPSh0siE-59" target="rXN8O0KgYMm2YPSh0siE-44" edge="1">
          <mxGeometry width="160" relative="1" as="geometry">
            <mxPoint x="20" y="412" as="sourcePoint" />
            <mxPoint x="180" y="412" as="targetPoint" />
          </mxGeometry>
        </mxCell>
        <mxCell id="oS7kkCP_p77NcMJ5a0b5-17" value="Extends" style="endArrow=block;endSize=16;endFill=0;html=1;rounded=0;exitX=0.386;exitY=-0.043;exitDx=0;exitDy=0;exitPerimeter=0;edgeStyle=orthogonalEdgeStyle;" parent="1" source="rXN8O0KgYMm2YPSh0siE-40" target="rXN8O0KgYMm2YPSh0siE-44" edge="1">
          <mxGeometry width="160" relative="1" as="geometry">
            <mxPoint x="160" y="400" as="sourcePoint" />
            <mxPoint x="320" y="400" as="targetPoint" />
          </mxGeometry>
        </mxCell>
        <mxCell id="oS7kkCP_p77NcMJ5a0b5-18" value="Extends" style="endArrow=block;endSize=16;endFill=0;html=1;rounded=0;exitX=0.05;exitY=-0.034;exitDx=0;exitDy=0;exitPerimeter=0;edgeStyle=orthogonalEdgeStyle;" parent="1" source="rXN8O0KgYMm2YPSh0siE-55" target="rXN8O0KgYMm2YPSh0siE-44" edge="1">
          <mxGeometry width="160" relative="1" as="geometry">
            <mxPoint x="260" y="400" as="sourcePoint" />
            <mxPoint x="420" y="400" as="targetPoint" />
          </mxGeometry>
        </mxCell>
        <mxCell id="oS7kkCP_p77NcMJ5a0b5-19" value="Extends" style="endArrow=block;endSize=16;endFill=0;html=1;rounded=0;exitX=0.396;exitY=-0.002;exitDx=0;exitDy=0;exitPerimeter=0;edgeStyle=orthogonalEdgeStyle;" parent="1" source="rXN8O0KgYMm2YPSh0siE-25" target="rXN8O0KgYMm2YPSh0siE-44" edge="1">
          <mxGeometry width="160" relative="1" as="geometry">
            <mxPoint x="610" y="412" as="sourcePoint" />
            <mxPoint x="770" y="412" as="targetPoint" />
          </mxGeometry>
        </mxCell>
        <mxCell id="oS7kkCP_p77NcMJ5a0b5-20" value="" style="endArrow=none;html=1;rounded=0;exitX=1.001;exitY=0.046;exitDx=0;exitDy=0;exitPerimeter=0;entryX=-0.024;entryY=0.116;entryDx=0;entryDy=0;entryPerimeter=0;edgeStyle=orthogonalEdgeStyle;" parent="1" source="rXN8O0KgYMm2YPSh0siE-44" target="rXN8O0KgYMm2YPSh0siE-63" edge="1">
          <mxGeometry relative="1" as="geometry">
            <mxPoint x="230" y="262.5" as="sourcePoint" />
            <mxPoint x="390" y="262.5" as="targetPoint" />
          </mxGeometry>
        </mxCell>
        <mxCell id="oS7kkCP_p77NcMJ5a0b5-21" value="parent" style="edgeLabel;resizable=0;html=1;align=left;verticalAlign=bottom;" parent="oS7kkCP_p77NcMJ5a0b5-20" connectable="0" vertex="1">
          <mxGeometry x="-1" relative="1" as="geometry" />
        </mxCell>
        <mxCell id="oS7kkCP_p77NcMJ5a0b5-22" value="child" style="edgeLabel;resizable=0;html=1;align=right;verticalAlign=bottom;" parent="oS7kkCP_p77NcMJ5a0b5-20" connectable="0" vertex="1">
          <mxGeometry x="1" relative="1" as="geometry" />
        </mxCell>
        <mxCell id="oS7kkCP_p77NcMJ5a0b5-23" value="" style="endArrow=block;dashed=1;endFill=0;endSize=12;html=1;rounded=0;exitX=0.454;exitY=-0.007;exitDx=0;exitDy=0;exitPerimeter=0;entryX=1.009;entryY=0.118;entryDx=0;entryDy=0;entryPerimeter=0;edgeStyle=orthogonalEdgeStyle;" parent="1" source="rXN8O0KgYMm2YPSh0siE-68" target="oS7kkCP_p77NcMJ5a0b5-1" edge="1">
          <mxGeometry width="160" relative="1" as="geometry">
            <mxPoint x="600" y="60" as="sourcePoint" />
            <mxPoint x="760" y="60" as="targetPoint" />
          </mxGeometry>
        </mxCell>
        <mxCell id="oS7kkCP_p77NcMJ5a0b5-24" value="" style="endArrow=block;startArrow=block;endFill=1;startFill=1;html=1;rounded=0;exitX=0.996;exitY=0.079;exitDx=0;exitDy=0;exitPerimeter=0;entryX=-0.021;entryY=0.063;entryDx=0;entryDy=0;entryPerimeter=0;edgeStyle=orthogonalEdgeStyle;" parent="1" source="rXN8O0KgYMm2YPSh0siE-44" target="rXN8O0KgYMm2YPSh0siE-68" edge="1">
          <mxGeometry width="160" relative="1" as="geometry">
            <mxPoint x="330" y="280" as="sourcePoint" />
            <mxPoint x="490" y="280" as="targetPoint" />
          </mxGeometry>
        </mxCell>
      </root>
    </mxGraphModel>
  </diagram>
  <diagram id="3u9Jc_mrVJvrvELkumQ2" name="Страница — 2">
    <mxGraphModel dx="996" dy="569" grid="1" gridSize="10" guides="1" tooltips="1" connect="1" arrows="1" fold="1" page="1" pageScale="1" pageWidth="827" pageHeight="1169" math="0" shadow="0">
      <root>
        <mxCell id="0" />
        <mxCell id="1" parent="0" />
        <mxCell id="w9uuwuis5CAIoJD2yi0G-2" value="Change Fill Properties" style="ellipse;whiteSpace=wrap;html=1;" parent="1" vertex="1">
          <mxGeometry x="380" y="480" width="140" height="70" as="geometry" />
        </mxCell>
        <mxCell id="w9uuwuis5CAIoJD2yi0G-1" value="Actor" style="shape=umlActor;verticalLabelPosition=bottom;verticalAlign=top;html=1;" parent="1" vertex="1">
          <mxGeometry x="640" y="290" width="30" height="60" as="geometry" />
        </mxCell>
        <mxCell id="w9uuwuis5CAIoJD2yi0G-3" value="create complex Shapes" style="ellipse;whiteSpace=wrap;html=1;" parent="1" vertex="1">
          <mxGeometry x="310" y="330" width="140" height="70" as="geometry" />
        </mxCell>
        <mxCell id="w9uuwuis5CAIoJD2yi0G-4" value="Edit Shapes" style="ellipse;whiteSpace=wrap;html=1;" parent="1" vertex="1">
          <mxGeometry x="600" y="490" width="140" height="70" as="geometry" />
        </mxCell>
        <mxCell id="w9uuwuis5CAIoJD2yi0G-5" value="Move; Scale and Rotate Shapes" style="ellipse;whiteSpace=wrap;html=1;" parent="1" vertex="1">
          <mxGeometry x="820" y="290" width="140" height="70" as="geometry" />
        </mxCell>
        <mxCell id="w9uuwuis5CAIoJD2yi0G-6" value="Add border" style="ellipse;whiteSpace=wrap;html=1;" parent="1" vertex="1">
          <mxGeometry x="530" y="70" width="140" height="70" as="geometry" />
        </mxCell>
        <mxCell id="w9uuwuis5CAIoJD2yi0G-7" value="Work with multiple Drawing" style="ellipse;whiteSpace=wrap;html=1;" parent="1" vertex="1">
          <mxGeometry x="750" y="120" width="140" height="70" as="geometry" />
        </mxCell>
        <mxCell id="w9uuwuis5CAIoJD2yi0G-8" value="create basic Shapes" style="ellipse;whiteSpace=wrap;html=1;" parent="1" vertex="1">
          <mxGeometry x="274" y="150" width="140" height="70" as="geometry" />
        </mxCell>
        <mxCell id="w9uuwuis5CAIoJD2yi0G-10" value="save drawing" style="ellipse;whiteSpace=wrap;html=1;" parent="1" vertex="1">
          <mxGeometry x="820" y="470" width="140" height="70" as="geometry" />
        </mxCell>
        <mxCell id="w9uuwuis5CAIoJD2yi0G-13" value="" style="endArrow=none;html=1;rounded=0;exitX=0.5;exitY=0.5;exitDx=0;exitDy=0;exitPerimeter=0;" parent="1" source="w9uuwuis5CAIoJD2yi0G-1" target="w9uuwuis5CAIoJD2yi0G-8" edge="1">
          <mxGeometry width="50" height="50" relative="1" as="geometry">
            <mxPoint x="40.130000000000145" y="327.52" as="sourcePoint" />
            <mxPoint x="150.00000000000003" y="229.42999999999995" as="targetPoint" />
          </mxGeometry>
        </mxCell>
        <mxCell id="w9uuwuis5CAIoJD2yi0G-14" value="" style="endArrow=none;html=1;rounded=0;exitX=0.5;exitY=0.5;exitDx=0;exitDy=0;exitPerimeter=0;" parent="1" source="w9uuwuis5CAIoJD2yi0G-1" target="w9uuwuis5CAIoJD2yi0G-3" edge="1">
          <mxGeometry width="50" height="50" relative="1" as="geometry">
            <mxPoint x="80" y="410" as="sourcePoint" />
            <mxPoint x="130" y="360" as="targetPoint" />
          </mxGeometry>
        </mxCell>
        <mxCell id="jHc2bFB0-AwEYuwqbz4E-10" value="" style="endArrow=none;html=1;rounded=0;entryX=0.5;entryY=1;entryDx=0;entryDy=0;" parent="1" source="w9uuwuis5CAIoJD2yi0G-1" target="w9uuwuis5CAIoJD2yi0G-6" edge="1">
          <mxGeometry width="50" height="50" relative="1" as="geometry">
            <mxPoint x="620" y="320" as="sourcePoint" />
            <mxPoint x="670" y="270" as="targetPoint" />
          </mxGeometry>
        </mxCell>
        <mxCell id="jHc2bFB0-AwEYuwqbz4E-11" value="" style="endArrow=none;html=1;rounded=0;entryX=0;entryY=1;entryDx=0;entryDy=0;exitX=0.5;exitY=0.5;exitDx=0;exitDy=0;exitPerimeter=0;" parent="1" source="w9uuwuis5CAIoJD2yi0G-1" target="w9uuwuis5CAIoJD2yi0G-7" edge="1">
          <mxGeometry width="50" height="50" relative="1" as="geometry">
            <mxPoint x="620" y="320" as="sourcePoint" />
            <mxPoint x="670" y="270" as="targetPoint" />
          </mxGeometry>
        </mxCell>
        <mxCell id="jHc2bFB0-AwEYuwqbz4E-12" value="" style="endArrow=none;html=1;rounded=0;entryX=-0.023;entryY=0.37;entryDx=0;entryDy=0;entryPerimeter=0;exitX=0.667;exitY=0.667;exitDx=0;exitDy=0;exitPerimeter=0;" parent="1" source="w9uuwuis5CAIoJD2yi0G-1" target="w9uuwuis5CAIoJD2yi0G-5" edge="1">
          <mxGeometry width="50" height="50" relative="1" as="geometry">
            <mxPoint x="620" y="320" as="sourcePoint" />
            <mxPoint x="670" y="270" as="targetPoint" />
          </mxGeometry>
        </mxCell>
        <mxCell id="jHc2bFB0-AwEYuwqbz4E-13" value="" style="endArrow=none;html=1;rounded=0;entryX=0.169;entryY=0.806;entryDx=0;entryDy=0;entryPerimeter=0;" parent="1" source="w9uuwuis5CAIoJD2yi0G-2" target="w9uuwuis5CAIoJD2yi0G-1" edge="1">
          <mxGeometry width="50" height="50" relative="1" as="geometry">
            <mxPoint x="620" y="320" as="sourcePoint" />
            <mxPoint x="670" y="270" as="targetPoint" />
          </mxGeometry>
        </mxCell>
        <mxCell id="jHc2bFB0-AwEYuwqbz4E-14" value="" style="endArrow=none;html=1;rounded=0;exitX=0.5;exitY=0;exitDx=0;exitDy=0;entryX=0.56;entryY=0.823;entryDx=0;entryDy=0;entryPerimeter=0;" parent="1" source="w9uuwuis5CAIoJD2yi0G-4" target="w9uuwuis5CAIoJD2yi0G-1" edge="1">
          <mxGeometry width="50" height="50" relative="1" as="geometry">
            <mxPoint x="620" y="320" as="sourcePoint" />
            <mxPoint x="670" y="270" as="targetPoint" />
          </mxGeometry>
        </mxCell>
        <mxCell id="jHc2bFB0-AwEYuwqbz4E-15" value="" style="endArrow=none;html=1;rounded=0;exitX=0.631;exitY=0.699;exitDx=0;exitDy=0;exitPerimeter=0;" parent="1" source="w9uuwuis5CAIoJD2yi0G-1" target="w9uuwuis5CAIoJD2yi0G-10" edge="1">
          <mxGeometry width="50" height="50" relative="1" as="geometry">
            <mxPoint x="620" y="320" as="sourcePoint" />
            <mxPoint x="670" y="270" as="targetPoint" />
          </mxGeometry>
        </mxCell>
      </root>
    </mxGraphModel>
  </diagram>
</mxfile>
